<svg width="66" height="66" viewBox="0 0 66 66" fill="none" xmlns="http://www.w3.org/2000/svg">
<path d="M56.0768 33C56.0768 45.745 45.745 56.0769 32.9999 56.0769C20.2549 56.0769 9.923 45.745 9.923 33C9.923 20.255 20.2549 9.92307 32.9999 9.92307C45.745 9.92307 56.0768 20.255 56.0768 33Z" stroke="white" stroke-width="5" stroke-miterlimit="1.30541" stroke-dasharray="30 30"/>
<path d="M56.0768 33C56.0768 45.745 45.745 56.0769 32.9999 56.0769C20.2549 56.0769 9.923 45.745 9.923 33C9.923 20.255 20.2549 9.92307 32.9999 9.92307C45.745 9.92307 56.0768 20.255 56.0768 33Z" stroke="white" stroke-width="5" stroke-miterlimit="1.30541" stroke-dasharray="30 30"/>
<path d="M63 33C63 49.5685 49.5685 63 33 63C16.4315 63 3 49.5685 3 33C3 16.4315 16.4315 3 33 3C49.5685 3 63 16.4315 63 33Z" stroke="white" stroke-width="5" stroke-miterlimit="1.30541" stroke-dasharray="30 30"/>
</svg>
